<?xml version="1.0" standalone="no"?><!DOCTYPE svg PUBLIC "-//W3C//DTD SVG 1.1//EN" "http://www.w3.org/Graphics/SVG/1.1/DTD/svg11.dtd"><svg t="1649771230569" class="icon" viewBox="0 0 1024 1024" version="1.1" xmlns="http://www.w3.org/2000/svg" p-id="2567" xmlns:xlink="http://www.w3.org/1999/xlink" width="200" height="200"><defs><style type="text/css">@font-face { font-family: feedback-iconfont; src: url("//at.alicdn.com/t/font_1031158_u69w8yhxdu.woff2?t=1630033759944") format("woff2"), url("//at.alicdn.com/t/font_1031158_u69w8yhxdu.woff?t=1630033759944") format("woff"), url("//at.alicdn.com/t/font_1031158_u69w8yhxdu.ttf?t=1630033759944") format("truetype"); }
</style></defs><path d="M791.253333 85.333333C825.6 85.333333 853.333333 114.645333 853.333333 150.784v722.432c0 36.138667-27.776 65.450667-62.08 65.450667L512 704 232.746667 938.666667C198.4 938.666667 170.666667 909.354667 170.666667 873.216V150.784C170.666667 114.645333 198.442667 85.333333 232.746667 85.333333h558.506666zM810.666667 128H213.333333v768l298.666667-256 298.666667 256V128z m-288 96.853333a10.666667 10.666667 0 0 1 6.656 2.346667l185.6 148.48 1.962666 2.048a10.666667 10.666667 0 0 1-1.962666 14.592l-185.6 148.48-2.432 1.493333a10.666667 10.666667 0 0 1-14.890667-9.813333V469.333333l42.666667-42.666666H320a21.333333 21.333333 0 0 1-21.333333-21.333334v-42.666666a21.333333 21.333333 0 0 1 21.333333-21.333334H554.666667l-42.666667-42.666666V235.52l0.298667-2.432a10.666667 10.666667 0 0 1 10.368-8.234667z" fill="#590B18" p-id="2568"></path></svg>